<mxfile host="Electron" agent="Mozilla/5.0 (Windows NT 10.0; Win64; x64) AppleWebKit/537.36 (KHTML, like Gecko) draw.io/24.7.17 Chrome/128.0.6613.36 Electron/32.0.1 Safari/537.36" version="24.7.17">
  <diagram name="Flowchart" id="0">
    <mxGraphModel dx="1381" dy="808" grid="1" gridSize="10" guides="1" tooltips="1" connect="1" arrows="1" fold="1" page="1" pageScale="1" pageWidth="827" pageHeight="1169" math="0" shadow="0">
      <root>
        <mxCell id="0" />
        <mxCell id="1" parent="0" />
        <mxCell id="2" value="Start" style="ellipse;whiteSpace=wrap;html=1;" parent="1" vertex="1">
          <mxGeometry x="160" y="50" width="120" height="60" as="geometry" />
        </mxCell>
        <mxCell id="3" value="Inventaris properti perusahaan 1.Mendaftar, 2.Login, 3.Keluar&lt;div&gt;&lt;br&gt;&lt;/div&gt;" style="rounded=1;whiteSpace=wrap;html=1;" parent="1" vertex="1">
          <mxGeometry x="160" y="130" width="170" height="70" as="geometry" />
        </mxCell>
        <mxCell id="4" value="1.Mendaftar" style="rhombus;whiteSpace=wrap;html=1;" parent="1" vertex="1">
          <mxGeometry x="60" y="240" width="120" height="60" as="geometry" />
        </mxCell>
        <mxCell id="5" value="2.Login" style="rhombus;whiteSpace=wrap;html=1;" parent="1" vertex="1">
          <mxGeometry x="250" y="240" width="120" height="60" as="geometry" />
        </mxCell>
        <mxCell id="6" value="3.Keluar" style="rhombus;whiteSpace=wrap;html=1;" parent="1" vertex="1">
          <mxGeometry x="540" y="130" width="120" height="60" as="geometry" />
        </mxCell>
        <mxCell id="7" value="Mendaftar Pengguna Baru : 1.Masukkan username baru, 2.Masukkan password baru&lt;div&gt;&lt;br&gt;&lt;/div&gt;" style="rounded=1;whiteSpace=wrap;html=1;" parent="1" vertex="1">
          <mxGeometry x="60" y="340" width="150" height="80" as="geometry" />
        </mxCell>
        <mxCell id="8" value="Username &amp; Password" style="rounded=1;whiteSpace=wrap;html=1;" parent="1" vertex="1">
          <mxGeometry x="260" y="340" width="140" height="60" as="geometry" />
        </mxCell>
        <mxCell id="9" value="Admin Login&lt;div&gt;( Masukkan username : admin&amp;nbsp;&amp;nbsp;&lt;/div&gt;&lt;div&gt;Masukkan password : admin123 )&lt;/div&gt;" style="rounded=1;whiteSpace=wrap;html=1;" parent="1" vertex="1">
          <mxGeometry x="160" y="440" width="160" height="80" as="geometry" />
        </mxCell>
        <mxCell id="10" value="User Login" style="rounded=1;whiteSpace=wrap;html=1;" parent="1" vertex="1">
          <mxGeometry x="350" y="550" width="140" height="60" as="geometry" />
        </mxCell>
        <mxCell id="12" value="End" style="ellipse;whiteSpace=wrap;html=1;" parent="1" vertex="1">
          <mxGeometry x="260" y="1100" width="120" height="60" as="geometry" />
        </mxCell>
        <mxCell id="13" parent="1" source="2" target="3" edge="1">
          <mxGeometry relative="1" as="geometry" />
        </mxCell>
        <mxCell id="14" parent="1" source="3" target="4" edge="1">
          <mxGeometry relative="1" as="geometry" />
        </mxCell>
        <mxCell id="15" parent="1" source="3" target="5" edge="1">
          <mxGeometry relative="1" as="geometry" />
        </mxCell>
        <mxCell id="16" parent="1" source="3" target="6" edge="1">
          <mxGeometry relative="1" as="geometry">
            <Array as="points">
              <mxPoint x="450" y="160" />
            </Array>
          </mxGeometry>
        </mxCell>
        <mxCell id="17" parent="1" source="4" target="7" edge="1">
          <mxGeometry relative="1" as="geometry" />
        </mxCell>
        <mxCell id="18" parent="1" source="5" target="8" edge="1">
          <mxGeometry relative="1" as="geometry" />
        </mxCell>
        <mxCell id="19" parent="1" source="8" target="9" edge="1">
          <mxGeometry relative="1" as="geometry" />
        </mxCell>
        <mxCell id="20" parent="1" source="8" target="10" edge="1">
          <mxGeometry relative="1" as="geometry" />
        </mxCell>
        <mxCell id="21" style="entryX=1;entryY=0.5;entryDx=0;entryDy=0;" parent="1" source="6" target="12" edge="1">
          <mxGeometry relative="1" as="geometry">
            <Array as="points">
              <mxPoint x="780" y="550" />
              <mxPoint x="780" y="980" />
            </Array>
          </mxGeometry>
        </mxCell>
        <mxCell id="22" style="entryX=0.387;entryY=0.017;entryDx=0;entryDy=0;entryPerimeter=0;" parent="1" source="9" target="7sAt9_vUlB4Bf2aHcFAK-32" edge="1">
          <mxGeometry relative="1" as="geometry">
            <mxPoint x="235" y="540" as="targetPoint" />
          </mxGeometry>
        </mxCell>
        <mxCell id="23" style="entryX=1;entryY=0.5;entryDx=0;entryDy=0;" parent="1" source="10" target="4yVzAG0rRG666TBuNoks-45" edge="1">
          <mxGeometry relative="1" as="geometry">
            <mxPoint x="290" y="750" as="targetPoint" />
          </mxGeometry>
        </mxCell>
        <mxCell id="7sAt9_vUlB4Bf2aHcFAK-25" value="" style="endArrow=classic;html=1;rounded=0;entryX=0.435;entryY=1.037;entryDx=0;entryDy=0;entryPerimeter=0;exitX=0.955;exitY=0.028;exitDx=0;exitDy=0;exitPerimeter=0;" parent="1" source="7" target="3" edge="1">
          <mxGeometry width="50" height="50" relative="1" as="geometry">
            <mxPoint x="200" y="350" as="sourcePoint" />
            <mxPoint x="250" y="290" as="targetPoint" />
          </mxGeometry>
        </mxCell>
        <mxCell id="7sAt9_vUlB4Bf2aHcFAK-32" value="Menu Admin :&lt;div&gt;1.Tambah Barang&lt;/div&gt;&lt;div&gt;2.Lihat Barang&lt;/div&gt;&lt;div&gt;3.Ubah Barang&lt;/div&gt;&lt;div&gt;4.Hapus Barang&lt;/div&gt;" style="rounded=1;whiteSpace=wrap;html=1;" parent="1" vertex="1">
          <mxGeometry x="190" y="555" width="130" height="90" as="geometry" />
        </mxCell>
        <mxCell id="7sAt9_vUlB4Bf2aHcFAK-33" value="5.Logout" style="rounded=1;whiteSpace=wrap;html=1;" parent="1" vertex="1">
          <mxGeometry x="10" y="570" width="120" height="60" as="geometry" />
        </mxCell>
        <mxCell id="7sAt9_vUlB4Bf2aHcFAK-37" value="2.Logout" style="rounded=1;whiteSpace=wrap;html=1;" parent="1" vertex="1">
          <mxGeometry x="580" y="550" width="120" height="60" as="geometry" />
        </mxCell>
        <mxCell id="7sAt9_vUlB4Bf2aHcFAK-38" value="" style="endArrow=classic;startArrow=classic;html=1;rounded=0;entryX=0;entryY=0.5;entryDx=0;entryDy=0;exitX=1;exitY=0.5;exitDx=0;exitDy=0;" parent="1" target="7sAt9_vUlB4Bf2aHcFAK-37" edge="1">
          <mxGeometry width="50" height="50" relative="1" as="geometry">
            <mxPoint x="490" y="580" as="sourcePoint" />
            <mxPoint x="380" y="550" as="targetPoint" />
          </mxGeometry>
        </mxCell>
        <mxCell id="7sAt9_vUlB4Bf2aHcFAK-39" value="" style="endArrow=classic;html=1;rounded=0;exitX=0.5;exitY=0;exitDx=0;exitDy=0;entryX=1;entryY=1;entryDx=0;entryDy=0;" parent="1" source="7sAt9_vUlB4Bf2aHcFAK-37" target="3" edge="1">
          <mxGeometry width="50" height="50" relative="1" as="geometry">
            <mxPoint x="330" y="340" as="sourcePoint" />
            <mxPoint x="310" y="190" as="targetPoint" />
          </mxGeometry>
        </mxCell>
        <mxCell id="4yVzAG0rRG666TBuNoks-24" value="" style="endArrow=classic;html=1;rounded=0;entryX=-0.01;entryY=0.597;entryDx=0;entryDy=0;entryPerimeter=0;exitX=0.417;exitY=0;exitDx=0;exitDy=0;exitPerimeter=0;" parent="1" source="7sAt9_vUlB4Bf2aHcFAK-33" target="3" edge="1">
          <mxGeometry width="50" height="50" relative="1" as="geometry">
            <mxPoint x="50" y="560" as="sourcePoint" />
            <mxPoint x="220" y="370" as="targetPoint" />
            <Array as="points">
              <mxPoint x="30" y="200" />
            </Array>
          </mxGeometry>
        </mxCell>
        <mxCell id="4yVzAG0rRG666TBuNoks-42" value="" style="endArrow=classic;html=1;rounded=0;exitX=0.213;exitY=1.009;exitDx=0;exitDy=0;exitPerimeter=0;entryX=0.5;entryY=0;entryDx=0;entryDy=0;" parent="1" source="7sAt9_vUlB4Bf2aHcFAK-32" target="4yVzAG0rRG666TBuNoks-45" edge="1">
          <mxGeometry width="50" height="50" relative="1" as="geometry">
            <mxPoint x="370" y="680" as="sourcePoint" />
            <mxPoint x="220" y="730" as="targetPoint" />
          </mxGeometry>
        </mxCell>
        <mxCell id="4yVzAG0rRG666TBuNoks-43" value="" style="endArrow=classic;html=1;rounded=0;exitX=0.054;exitY=0.965;exitDx=0;exitDy=0;exitPerimeter=0;entryX=0.5;entryY=0;entryDx=0;entryDy=0;" parent="1" source="7sAt9_vUlB4Bf2aHcFAK-32" edge="1">
          <mxGeometry width="50" height="50" relative="1" as="geometry">
            <mxPoint x="370" y="680" as="sourcePoint" />
            <mxPoint x="60" y="730" as="targetPoint" />
          </mxGeometry>
        </mxCell>
        <mxCell id="4yVzAG0rRG666TBuNoks-44" value="Tambah Barang" style="rhombus;whiteSpace=wrap;html=1;" parent="1" vertex="1">
          <mxGeometry y="730" width="120" height="60" as="geometry" />
        </mxCell>
        <mxCell id="4yVzAG0rRG666TBuNoks-45" value="Lihat Barang" style="rhombus;whiteSpace=wrap;html=1;" parent="1" vertex="1">
          <mxGeometry x="160" y="740" width="120" height="60" as="geometry" />
        </mxCell>
        <mxCell id="4yVzAG0rRG666TBuNoks-46" value="Ubah Barang" style="rhombus;whiteSpace=wrap;html=1;" parent="1" vertex="1">
          <mxGeometry x="320" y="750" width="120" height="60" as="geometry" />
        </mxCell>
        <mxCell id="4yVzAG0rRG666TBuNoks-47" value="" style="endArrow=classic;html=1;rounded=0;exitX=0.921;exitY=1.024;exitDx=0;exitDy=0;exitPerimeter=0;" parent="1" source="7sAt9_vUlB4Bf2aHcFAK-32" target="4yVzAG0rRG666TBuNoks-46" edge="1">
          <mxGeometry width="50" height="50" relative="1" as="geometry">
            <mxPoint x="330" y="790" as="sourcePoint" />
            <mxPoint x="380" y="740" as="targetPoint" />
          </mxGeometry>
        </mxCell>
        <mxCell id="4yVzAG0rRG666TBuNoks-48" value="Hapus Barang" style="rhombus;whiteSpace=wrap;html=1;" parent="1" vertex="1">
          <mxGeometry x="520" y="740" width="120" height="60" as="geometry" />
        </mxCell>
        <mxCell id="4yVzAG0rRG666TBuNoks-49" value="" style="endArrow=classic;html=1;rounded=0;exitX=1.023;exitY=0.631;exitDx=0;exitDy=0;exitPerimeter=0;" parent="1" source="7sAt9_vUlB4Bf2aHcFAK-32" target="4yVzAG0rRG666TBuNoks-48" edge="1">
          <mxGeometry width="50" height="50" relative="1" as="geometry">
            <mxPoint x="330" y="790" as="sourcePoint" />
            <mxPoint x="380" y="740" as="targetPoint" />
          </mxGeometry>
        </mxCell>
        <mxCell id="4yVzAG0rRG666TBuNoks-51" value="Tambah Barang :&lt;div&gt;ID barang, kategori barang, jumlah barang, merk barang, harga barang, tanggal pembelian&lt;/div&gt;" style="rounded=1;whiteSpace=wrap;html=1;" parent="1" vertex="1">
          <mxGeometry x="40" y="840" width="130" height="90" as="geometry" />
        </mxCell>
        <mxCell id="4yVzAG0rRG666TBuNoks-52" value="" style="endArrow=classic;html=1;rounded=0;exitX=0.5;exitY=1;exitDx=0;exitDy=0;entryX=0.5;entryY=0;entryDx=0;entryDy=0;" parent="1" source="4yVzAG0rRG666TBuNoks-44" target="4yVzAG0rRG666TBuNoks-51" edge="1">
          <mxGeometry width="50" height="50" relative="1" as="geometry">
            <mxPoint x="320" y="750" as="sourcePoint" />
            <mxPoint x="370" y="700" as="targetPoint" />
          </mxGeometry>
        </mxCell>
        <mxCell id="4yVzAG0rRG666TBuNoks-53" value="" style="endArrow=classic;html=1;rounded=0;exitX=0.431;exitY=0.964;exitDx=0;exitDy=0;exitPerimeter=0;" parent="1" source="4yVzAG0rRG666TBuNoks-46" target="4yVzAG0rRG666TBuNoks-56" edge="1">
          <mxGeometry width="50" height="50" relative="1" as="geometry">
            <mxPoint x="320" y="750" as="sourcePoint" />
            <mxPoint x="360" y="880" as="targetPoint" />
          </mxGeometry>
        </mxCell>
        <mxCell id="4yVzAG0rRG666TBuNoks-54" value="" style="endArrow=classic;html=1;rounded=0;exitX=0.75;exitY=0;exitDx=0;exitDy=0;entryX=0;entryY=1;entryDx=0;entryDy=0;" parent="1" source="4yVzAG0rRG666TBuNoks-51" target="4yVzAG0rRG666TBuNoks-45" edge="1">
          <mxGeometry width="50" height="50" relative="1" as="geometry">
            <mxPoint x="320" y="750" as="sourcePoint" />
            <mxPoint x="370" y="700" as="targetPoint" />
          </mxGeometry>
        </mxCell>
        <mxCell id="4yVzAG0rRG666TBuNoks-55" value="Ubah Barang :&lt;div&gt;kategori barang, jumlah barang, merk barang, harga barang, tanggal pembelian&lt;br&gt;&lt;/div&gt;" style="rounded=1;whiteSpace=wrap;html=1;" parent="1" vertex="1">
          <mxGeometry x="400" y="960" width="130" height="90" as="geometry" />
        </mxCell>
        <mxCell id="4yVzAG0rRG666TBuNoks-56" value="Masukkan ID yang sudah ada" style="rhombus;whiteSpace=wrap;html=1;" parent="1" vertex="1">
          <mxGeometry x="370" y="840" width="130" height="100" as="geometry" />
        </mxCell>
        <mxCell id="4yVzAG0rRG666TBuNoks-58" value="" style="endArrow=classic;html=1;rounded=0;exitX=0.847;exitY=0.692;exitDx=0;exitDy=0;exitPerimeter=0;entryX=0.695;entryY=-0.009;entryDx=0;entryDy=0;entryPerimeter=0;" parent="1" source="4yVzAG0rRG666TBuNoks-56" target="4yVzAG0rRG666TBuNoks-55" edge="1">
          <mxGeometry width="50" height="50" relative="1" as="geometry">
            <mxPoint x="320" y="1070" as="sourcePoint" />
            <mxPoint x="370" y="1020" as="targetPoint" />
          </mxGeometry>
        </mxCell>
        <mxCell id="4yVzAG0rRG666TBuNoks-59" value="" style="endArrow=classic;html=1;rounded=0;exitX=0;exitY=0.25;exitDx=0;exitDy=0;entryX=0.697;entryY=0.808;entryDx=0;entryDy=0;entryPerimeter=0;" parent="1" source="4yVzAG0rRG666TBuNoks-55" target="4yVzAG0rRG666TBuNoks-45" edge="1">
          <mxGeometry width="50" height="50" relative="1" as="geometry">
            <mxPoint x="320" y="1010" as="sourcePoint" />
            <mxPoint x="370" y="960" as="targetPoint" />
          </mxGeometry>
        </mxCell>
        <mxCell id="4yVzAG0rRG666TBuNoks-60" value="" style="endArrow=classic;html=1;rounded=0;exitX=0.667;exitY=0.167;exitDx=0;exitDy=0;exitPerimeter=0;entryX=0.644;entryY=1.017;entryDx=0;entryDy=0;entryPerimeter=0;" parent="1" source="4yVzAG0rRG666TBuNoks-45" target="7sAt9_vUlB4Bf2aHcFAK-32" edge="1">
          <mxGeometry width="50" height="50" relative="1" as="geometry">
            <mxPoint x="320" y="780" as="sourcePoint" />
            <mxPoint x="370" y="730" as="targetPoint" />
          </mxGeometry>
        </mxCell>
        <mxCell id="4yVzAG0rRG666TBuNoks-61" value="" style="endArrow=classic;startArrow=classic;html=1;rounded=0;exitX=1;exitY=0.5;exitDx=0;exitDy=0;entryX=0;entryY=0.5;entryDx=0;entryDy=0;" parent="1" source="7sAt9_vUlB4Bf2aHcFAK-33" target="7sAt9_vUlB4Bf2aHcFAK-32" edge="1">
          <mxGeometry width="50" height="50" relative="1" as="geometry">
            <mxPoint x="370" y="700" as="sourcePoint" />
            <mxPoint x="420" y="650" as="targetPoint" />
          </mxGeometry>
        </mxCell>
      </root>
    </mxGraphModel>
  </diagram>
</mxfile>
